<?xml version="1.0" encoding="UTF-8"?>
<svg xmlns="http://www.w3.org/2000/svg" viewBox="0 0 1000 360" role="img" aria-label="Justagwas/github-downloads-action release downloads chart">
  <defs>
    <linearGradient id="fill-daily-orange" x1="0" y1="0" x2="0" y2="1">
      <stop offset="0%" stop-color="#f97316" stop-opacity="0.32"/>
      <stop offset="100%" stop-color="#f97316" stop-opacity="0.05"/>
    </linearGradient>
    <style>
      .bg { fill: #fff7ed; }
      .title { font: 700 24px Arial, sans-serif; fill: #7c2d12; }
      .sub { font: 400 13px Arial, sans-serif; fill: #9a3412; }
      .grid { stroke: #fed7aa; stroke-width: 1; }
      .axis { font: 400 12px Arial, sans-serif; fill: #c2410c; }
      .line { fill: none; stroke: #ea580c; stroke-width: 3; stroke-linecap: round; stroke-linejoin: round; }
      .dot { fill: #ea580c; }
      .value { font: 600 11px Arial, sans-serif; fill: #9a3412; }
      .latest { font: 700 14px Arial, sans-serif; fill: #7c2d12; }
    </style>
  </defs>
  <rect class="bg" x="0" y="0" width="1000" height="360" rx="16" />
  <text class="title" x="64" y="34">Justagwas/github-downloads-action release downloads</text>
  <text class="sub" x="64" y="352">Generated 2026-03-21</text>
  <line x1="64" y1="52.00" x2="976" y2="52.00" class="grid"/>
  <text x="56" y="56.00" text-anchor="end" class="axis">1</text>
  <line x1="64" y1="94.00" x2="976" y2="94.00" class="grid"/>
  <text x="56" y="98.00" text-anchor="end" class="axis">1</text>
  <line x1="64" y1="136.00" x2="976" y2="136.00" class="grid"/>
  <text x="56" y="140.00" text-anchor="end" class="axis">1</text>
  <line x1="64" y1="178.00" x2="976" y2="178.00" class="grid"/>
  <text x="56" y="182.00" text-anchor="end" class="axis">1</text>
  <line x1="64" y1="220.00" x2="976" y2="220.00" class="grid"/>
  <text x="56" y="224.00" text-anchor="end" class="axis">0</text>
  <line x1="64" y1="262.00" x2="976" y2="262.00" class="grid"/>
  <text x="56" y="266.00" text-anchor="end" class="axis">0</text>
  <line x1="64" y1="304.00" x2="976" y2="304.00" class="grid"/>
  <text x="56" y="308.00" text-anchor="end" class="axis">0</text>
  <path d="M 64.00 304 L 64.00 304.00 L 96.57 304.00 L 129.14 304.00 L 161.71 304.00 L 194.29 304.00 L 226.86 304.00 L 259.43 304.00 L 292.00 304.00 L 324.57 304.00 L 357.14 304.00 L 389.71 304.00 L 422.29 304.00 L 454.86 304.00 L 487.43 304.00 L 520.00 304.00 L 552.57 304.00 L 585.14 304.00 L 617.71 304.00 L 650.29 304.00 L 682.86 304.00 L 715.43 304.00 L 748.00 304.00 L 780.57 304.00 L 813.14 304.00 L 845.71 304.00 L 878.29 304.00 L 910.86 304.00 L 943.43 304.00 L 976.00 304.00 L 976.00 304 Z" fill="url(#fill-daily-orange)"/>
  <polyline class="line" points="64.00,304.00 96.57,304.00 129.14,304.00 161.71,304.00 194.29,304.00 226.86,304.00 259.43,304.00 292.00,304.00 324.57,304.00 357.14,304.00 389.71,304.00 422.29,304.00 454.86,304.00 487.43,304.00 520.00,304.00 552.57,304.00 585.14,304.00 617.71,304.00 650.29,304.00 682.86,304.00 715.43,304.00 748.00,304.00 780.57,304.00 813.14,304.00 845.71,304.00 878.29,304.00 910.86,304.00 943.43,304.00 976.00,304.00"/>
  <circle class="dot" cx="976.00" cy="304.00" r="4.5"/>
  
  <text class="axis" x="64.00" y="336" text-anchor="start">2026-02-21</text>
  <text class="axis" x="226.86" y="336" text-anchor="middle">2026-02-26</text>
  <text class="axis" x="389.71" y="336" text-anchor="middle">2026-03-03</text>
  <text class="axis" x="552.57" y="336" text-anchor="middle">2026-03-08</text>
  <text class="axis" x="715.43" y="336" text-anchor="middle">2026-03-13</text>
  <text class="axis" x="878.29" y="336" text-anchor="middle">2026-03-18</text>
  <text class="axis" x="976.00" y="336" text-anchor="end">2026-03-21</text>
  <text class="latest" x="976" y="34" text-anchor="end">Latest day: 0</text>
</svg>
