<?xml version="1.0" encoding="UTF-8"?>
<svg xmlns="http://www.w3.org/2000/svg" viewBox="0 0 1000 360" role="img" aria-label="Justagwas/github-downloads-action release downloads chart">
  <defs>
    <linearGradient id="fill-daily-slate" x1="0" y1="0" x2="0" y2="1">
      <stop offset="0%" stop-color="#60a5fa" stop-opacity="0.32"/>
      <stop offset="100%" stop-color="#60a5fa" stop-opacity="0.05"/>
    </linearGradient>
    <style>
      .bg { fill: #0f172a; }
      .title { font: 700 24px Arial, sans-serif; fill: #e2e8f0; }
      .sub { font: 400 13px Arial, sans-serif; fill: #94a3b8; }
      .grid { stroke: #1e293b; stroke-width: 1; }
      .axis { font: 400 12px Arial, sans-serif; fill: #94a3b8; }
      .line { fill: none; stroke: #60a5fa; stroke-width: 3; stroke-linecap: round; stroke-linejoin: round; }
      .dot { fill: #60a5fa; }
      .value { font: 600 11px Arial, sans-serif; fill: #cbd5e1; }
      .latest { font: 700 14px Arial, sans-serif; fill: #e2e8f0; }
    </style>
  </defs>
  <rect class="bg" x="0" y="0" width="1000" height="360" rx="16" />
  <text class="title" x="64" y="34">Justagwas/github-downloads-action release downloads</text>
  <text class="sub" x="64" y="352">Generated 2026-04-01</text>
  <line x1="64" y1="52.00" x2="976" y2="52.00" class="grid"/>
  <text x="56" y="56.00" text-anchor="end" class="axis">1</text>
  <line x1="64" y1="94.00" x2="976" y2="94.00" class="grid"/>
  <text x="56" y="98.00" text-anchor="end" class="axis">1</text>
  <line x1="64" y1="136.00" x2="976" y2="136.00" class="grid"/>
  <text x="56" y="140.00" text-anchor="end" class="axis">1</text>
  <line x1="64" y1="178.00" x2="976" y2="178.00" class="grid"/>
  <text x="56" y="182.00" text-anchor="end" class="axis">1</text>
  <line x1="64" y1="220.00" x2="976" y2="220.00" class="grid"/>
  <text x="56" y="224.00" text-anchor="end" class="axis">0</text>
  <line x1="64" y1="262.00" x2="976" y2="262.00" class="grid"/>
  <text x="56" y="266.00" text-anchor="end" class="axis">0</text>
  <line x1="64" y1="304.00" x2="976" y2="304.00" class="grid"/>
  <text x="56" y="308.00" text-anchor="end" class="axis">0</text>
  <path d="M 64.00 304 L 64.00 304.00 L 87.38 304.00 L 110.77 304.00 L 134.15 304.00 L 157.54 304.00 L 180.92 304.00 L 204.31 304.00 L 227.69 304.00 L 251.08 304.00 L 274.46 304.00 L 297.85 304.00 L 321.23 304.00 L 344.62 304.00 L 368.00 304.00 L 391.38 304.00 L 414.77 304.00 L 438.15 304.00 L 461.54 304.00 L 484.92 304.00 L 508.31 304.00 L 531.69 304.00 L 555.08 304.00 L 578.46 304.00 L 601.85 304.00 L 625.23 304.00 L 648.62 304.00 L 672.00 304.00 L 695.38 304.00 L 718.77 304.00 L 742.15 304.00 L 765.54 304.00 L 788.92 304.00 L 812.31 304.00 L 835.69 304.00 L 859.08 304.00 L 882.46 304.00 L 905.85 304.00 L 929.23 304.00 L 952.62 304.00 L 976.00 304.00 L 976.00 304 Z" fill="url(#fill-daily-slate)"/>
  <polyline class="line" points="64.00,304.00 87.38,304.00 110.77,304.00 134.15,304.00 157.54,304.00 180.92,304.00 204.31,304.00 227.69,304.00 251.08,304.00 274.46,304.00 297.85,304.00 321.23,304.00 344.62,304.00 368.00,304.00 391.38,304.00 414.77,304.00 438.15,304.00 461.54,304.00 484.92,304.00 508.31,304.00 531.69,304.00 555.08,304.00 578.46,304.00 601.85,304.00 625.23,304.00 648.62,304.00 672.00,304.00 695.38,304.00 718.77,304.00 742.15,304.00 765.54,304.00 788.92,304.00 812.31,304.00 835.69,304.00 859.08,304.00 882.46,304.00 905.85,304.00 929.23,304.00 952.62,304.00 976.00,304.00"/>
  <circle class="dot" cx="976.00" cy="304.00" r="4.5"/>
  
  <text class="axis" x="64.00" y="336" text-anchor="start">2026-02-21</text>
  <text class="axis" x="227.69" y="336" text-anchor="middle">2026-02-28</text>
  <text class="axis" x="391.38" y="336" text-anchor="middle">2026-03-07</text>
  <text class="axis" x="555.08" y="336" text-anchor="middle">2026-03-14</text>
  <text class="axis" x="718.77" y="336" text-anchor="middle">2026-03-21</text>
  <text class="axis" x="882.46" y="336" text-anchor="middle">2026-03-28</text>
  <text class="axis" x="976.00" y="336" text-anchor="end">2026-04-01</text>
  <text class="latest" x="976" y="34" text-anchor="end">Latest day: 0</text>
</svg>
