<?xml version="1.0" encoding="UTF-8"?>
<svg xmlns="http://www.w3.org/2000/svg" viewBox="0 0 1000 360" role="img" aria-label="Justagwas/github-downloads-action release downloads chart">
  <defs>
    <linearGradient id="fill-daily-slate" x1="0" y1="0" x2="0" y2="1">
      <stop offset="0%" stop-color="#60a5fa" stop-opacity="0.32"/>
      <stop offset="100%" stop-color="#60a5fa" stop-opacity="0.05"/>
    </linearGradient>
    <style>
      .bg { fill: #0f172a; }
      .title { font: 700 24px Arial, sans-serif; fill: #e2e8f0; }
      .sub { font: 400 13px Arial, sans-serif; fill: #94a3b8; }
      .grid { stroke: #1e293b; stroke-width: 1; }
      .axis { font: 400 12px Arial, sans-serif; fill: #94a3b8; }
      .line { fill: none; stroke: #60a5fa; stroke-width: 3; stroke-linecap: round; stroke-linejoin: round; }
      .dot { fill: #60a5fa; }
      .value { font: 600 11px Arial, sans-serif; fill: #cbd5e1; }
      .latest { font: 700 14px Arial, sans-serif; fill: #e2e8f0; }
    </style>
  </defs>
  <rect class="bg" x="0" y="0" width="1000" height="360" rx="16" />
  <text class="title" x="64" y="34">Justagwas/github-downloads-action release downloads</text>
  <text class="sub" x="64" y="352">Generated 2026-03-31</text>
  <line x1="64" y1="52.00" x2="976" y2="52.00" class="grid"/>
  <text x="56" y="56.00" text-anchor="end" class="axis">1</text>
  <line x1="64" y1="94.00" x2="976" y2="94.00" class="grid"/>
  <text x="56" y="98.00" text-anchor="end" class="axis">1</text>
  <line x1="64" y1="136.00" x2="976" y2="136.00" class="grid"/>
  <text x="56" y="140.00" text-anchor="end" class="axis">1</text>
  <line x1="64" y1="178.00" x2="976" y2="178.00" class="grid"/>
  <text x="56" y="182.00" text-anchor="end" class="axis">1</text>
  <line x1="64" y1="220.00" x2="976" y2="220.00" class="grid"/>
  <text x="56" y="224.00" text-anchor="end" class="axis">0</text>
  <line x1="64" y1="262.00" x2="976" y2="262.00" class="grid"/>
  <text x="56" y="266.00" text-anchor="end" class="axis">0</text>
  <line x1="64" y1="304.00" x2="976" y2="304.00" class="grid"/>
  <text x="56" y="308.00" text-anchor="end" class="axis">0</text>
  <path d="M 64.00 304 L 64.00 304.00 L 88.00 304.00 L 112.00 304.00 L 136.00 304.00 L 160.00 304.00 L 184.00 304.00 L 208.00 304.00 L 232.00 304.00 L 256.00 304.00 L 280.00 304.00 L 304.00 304.00 L 328.00 304.00 L 352.00 304.00 L 376.00 304.00 L 400.00 304.00 L 424.00 304.00 L 448.00 304.00 L 472.00 304.00 L 496.00 304.00 L 520.00 304.00 L 544.00 304.00 L 568.00 304.00 L 592.00 304.00 L 616.00 304.00 L 640.00 304.00 L 664.00 304.00 L 688.00 304.00 L 712.00 304.00 L 736.00 304.00 L 760.00 304.00 L 784.00 304.00 L 808.00 304.00 L 832.00 304.00 L 856.00 304.00 L 880.00 304.00 L 904.00 304.00 L 928.00 304.00 L 952.00 304.00 L 976.00 304.00 L 976.00 304 Z" fill="url(#fill-daily-slate)"/>
  <polyline class="line" points="64.00,304.00 88.00,304.00 112.00,304.00 136.00,304.00 160.00,304.00 184.00,304.00 208.00,304.00 232.00,304.00 256.00,304.00 280.00,304.00 304.00,304.00 328.00,304.00 352.00,304.00 376.00,304.00 400.00,304.00 424.00,304.00 448.00,304.00 472.00,304.00 496.00,304.00 520.00,304.00 544.00,304.00 568.00,304.00 592.00,304.00 616.00,304.00 640.00,304.00 664.00,304.00 688.00,304.00 712.00,304.00 736.00,304.00 760.00,304.00 784.00,304.00 808.00,304.00 832.00,304.00 856.00,304.00 880.00,304.00 904.00,304.00 928.00,304.00 952.00,304.00 976.00,304.00"/>
  <circle class="dot" cx="976.00" cy="304.00" r="4.5"/>
  
  <text class="axis" x="64.00" y="336" text-anchor="start">2026-02-21</text>
  <text class="axis" x="232.00" y="336" text-anchor="middle">2026-02-28</text>
  <text class="axis" x="400.00" y="336" text-anchor="middle">2026-03-07</text>
  <text class="axis" x="568.00" y="336" text-anchor="middle">2026-03-14</text>
  <text class="axis" x="736.00" y="336" text-anchor="middle">2026-03-21</text>
  <text class="axis" x="904.00" y="336" text-anchor="middle">2026-03-28</text>
  <text class="axis" x="976.00" y="336" text-anchor="end">2026-03-31</text>
  <text class="latest" x="976" y="34" text-anchor="end">Latest day: 0</text>
</svg>
