<?xml version="1.0" encoding="UTF-8"?>
<svg xmlns="http://www.w3.org/2000/svg" viewBox="0 0 1000 360" role="img" aria-label="Justagwas/github-downloads-action release downloads chart">
  <defs>
    <linearGradient id="fill-daily-black" x1="0" y1="0" x2="0" y2="1">
      <stop offset="0%" stop-color="#22d3ee" stop-opacity="0.32"/>
      <stop offset="100%" stop-color="#22d3ee" stop-opacity="0.05"/>
    </linearGradient>
    <style>
      .bg { fill: #0b0b0d; }
      .title { font: 700 24px Arial, sans-serif; fill: #f8fafc; }
      .sub { font: 400 13px Arial, sans-serif; fill: #cbd5e1; }
      .grid { stroke: #1f2937; stroke-width: 1; }
      .axis { font: 400 12px Arial, sans-serif; fill: #94a3b8; }
      .line { fill: none; stroke: #22d3ee; stroke-width: 3; stroke-linecap: round; stroke-linejoin: round; }
      .dot { fill: #22d3ee; }
      .value { font: 600 11px Arial, sans-serif; fill: #cbd5e1; }
      .latest { font: 700 14px Arial, sans-serif; fill: #f8fafc; }
    </style>
  </defs>
  <rect class="bg" x="0" y="0" width="1000" height="360" rx="16" />
  <text class="title" x="64" y="34">Justagwas/github-downloads-action release downloads</text>
  <text class="sub" x="64" y="352">Generated 2026-03-24</text>
  <line x1="64" y1="52.00" x2="976" y2="52.00" class="grid"/>
  <text x="56" y="56.00" text-anchor="end" class="axis">1</text>
  <line x1="64" y1="94.00" x2="976" y2="94.00" class="grid"/>
  <text x="56" y="98.00" text-anchor="end" class="axis">1</text>
  <line x1="64" y1="136.00" x2="976" y2="136.00" class="grid"/>
  <text x="56" y="140.00" text-anchor="end" class="axis">1</text>
  <line x1="64" y1="178.00" x2="976" y2="178.00" class="grid"/>
  <text x="56" y="182.00" text-anchor="end" class="axis">1</text>
  <line x1="64" y1="220.00" x2="976" y2="220.00" class="grid"/>
  <text x="56" y="224.00" text-anchor="end" class="axis">0</text>
  <line x1="64" y1="262.00" x2="976" y2="262.00" class="grid"/>
  <text x="56" y="266.00" text-anchor="end" class="axis">0</text>
  <line x1="64" y1="304.00" x2="976" y2="304.00" class="grid"/>
  <text x="56" y="308.00" text-anchor="end" class="axis">0</text>
  <path d="M 64.00 304 L 64.00 304.00 L 93.42 304.00 L 122.84 304.00 L 152.26 304.00 L 181.68 304.00 L 211.10 304.00 L 240.52 304.00 L 269.94 304.00 L 299.35 304.00 L 328.77 304.00 L 358.19 304.00 L 387.61 304.00 L 417.03 304.00 L 446.45 304.00 L 475.87 304.00 L 505.29 304.00 L 534.71 304.00 L 564.13 304.00 L 593.55 304.00 L 622.97 304.00 L 652.39 304.00 L 681.81 304.00 L 711.23 304.00 L 740.65 304.00 L 770.06 304.00 L 799.48 304.00 L 828.90 304.00 L 858.32 304.00 L 887.74 304.00 L 917.16 304.00 L 946.58 304.00 L 976.00 304.00 L 976.00 304 Z" fill="url(#fill-daily-black)"/>
  <polyline class="line" points="64.00,304.00 93.42,304.00 122.84,304.00 152.26,304.00 181.68,304.00 211.10,304.00 240.52,304.00 269.94,304.00 299.35,304.00 328.77,304.00 358.19,304.00 387.61,304.00 417.03,304.00 446.45,304.00 475.87,304.00 505.29,304.00 534.71,304.00 564.13,304.00 593.55,304.00 622.97,304.00 652.39,304.00 681.81,304.00 711.23,304.00 740.65,304.00 770.06,304.00 799.48,304.00 828.90,304.00 858.32,304.00 887.74,304.00 917.16,304.00 946.58,304.00 976.00,304.00"/>
  <circle class="dot" cx="976.00" cy="304.00" r="4.5"/>
  
  <text class="axis" x="64.00" y="336" text-anchor="start">2026-02-21</text>
  <text class="axis" x="240.52" y="336" text-anchor="middle">2026-02-27</text>
  <text class="axis" x="417.03" y="336" text-anchor="middle">2026-03-05</text>
  <text class="axis" x="593.55" y="336" text-anchor="middle">2026-03-11</text>
  <text class="axis" x="770.06" y="336" text-anchor="middle">2026-03-17</text>
  <text class="axis" x="946.58" y="336" text-anchor="middle">2026-03-23</text>
  <text class="axis" x="976.00" y="336" text-anchor="end">2026-03-24</text>
  <text class="latest" x="976" y="34" text-anchor="end">Latest day: 0</text>
</svg>
