<?xml version="1.0" encoding="UTF-8"?>
<svg xmlns="http://www.w3.org/2000/svg" viewBox="0 0 1000 360" role="img" aria-label="Justagwas/github-downloads-action release downloads chart">
  <defs>
    <linearGradient id="fill-daily-black" x1="0" y1="0" x2="0" y2="1">
      <stop offset="0%" stop-color="#22d3ee" stop-opacity="0.32"/>
      <stop offset="100%" stop-color="#22d3ee" stop-opacity="0.05"/>
    </linearGradient>
    <style>
      .bg { fill: #0b0b0d; }
      .title { font: 700 24px Arial, sans-serif; fill: #f8fafc; }
      .sub { font: 400 13px Arial, sans-serif; fill: #cbd5e1; }
      .grid { stroke: #1f2937; stroke-width: 1; }
      .axis { font: 400 12px Arial, sans-serif; fill: #94a3b8; }
      .line { fill: none; stroke: #22d3ee; stroke-width: 3; stroke-linecap: round; stroke-linejoin: round; }
      .dot { fill: #22d3ee; }
      .value { font: 600 11px Arial, sans-serif; fill: #cbd5e1; }
      .latest { font: 700 14px Arial, sans-serif; fill: #f8fafc; }
    </style>
  </defs>
  <rect class="bg" x="0" y="0" width="1000" height="360" rx="16" />
  <text class="title" x="64" y="34">Justagwas/github-downloads-action release downloads</text>
  <text class="sub" x="64" y="352">Generated 2026-04-06</text>
  <line x1="64" y1="52.00" x2="976" y2="52.00" class="grid"/>
  <text x="56" y="56.00" text-anchor="end" class="axis">1</text>
  <line x1="64" y1="94.00" x2="976" y2="94.00" class="grid"/>
  <text x="56" y="98.00" text-anchor="end" class="axis">1</text>
  <line x1="64" y1="136.00" x2="976" y2="136.00" class="grid"/>
  <text x="56" y="140.00" text-anchor="end" class="axis">1</text>
  <line x1="64" y1="178.00" x2="976" y2="178.00" class="grid"/>
  <text x="56" y="182.00" text-anchor="end" class="axis">1</text>
  <line x1="64" y1="220.00" x2="976" y2="220.00" class="grid"/>
  <text x="56" y="224.00" text-anchor="end" class="axis">0</text>
  <line x1="64" y1="262.00" x2="976" y2="262.00" class="grid"/>
  <text x="56" y="266.00" text-anchor="end" class="axis">0</text>
  <line x1="64" y1="304.00" x2="976" y2="304.00" class="grid"/>
  <text x="56" y="308.00" text-anchor="end" class="axis">0</text>
  <path d="M 64.00 304 L 64.00 304.00 L 84.73 304.00 L 105.45 304.00 L 126.18 304.00 L 146.91 304.00 L 167.64 304.00 L 188.36 304.00 L 209.09 304.00 L 229.82 304.00 L 250.55 304.00 L 271.27 304.00 L 292.00 304.00 L 312.73 304.00 L 333.45 304.00 L 354.18 304.00 L 374.91 304.00 L 395.64 304.00 L 416.36 304.00 L 437.09 304.00 L 457.82 304.00 L 478.55 304.00 L 499.27 304.00 L 520.00 304.00 L 540.73 304.00 L 561.45 304.00 L 582.18 304.00 L 602.91 304.00 L 623.64 304.00 L 644.36 304.00 L 665.09 304.00 L 685.82 304.00 L 706.55 304.00 L 727.27 304.00 L 748.00 304.00 L 768.73 304.00 L 789.45 304.00 L 810.18 304.00 L 830.91 304.00 L 851.64 304.00 L 872.36 304.00 L 893.09 304.00 L 913.82 304.00 L 934.55 304.00 L 955.27 304.00 L 976.00 304.00 L 976.00 304 Z" fill="url(#fill-daily-black)"/>
  <polyline class="line" points="64.00,304.00 84.73,304.00 105.45,304.00 126.18,304.00 146.91,304.00 167.64,304.00 188.36,304.00 209.09,304.00 229.82,304.00 250.55,304.00 271.27,304.00 292.00,304.00 312.73,304.00 333.45,304.00 354.18,304.00 374.91,304.00 395.64,304.00 416.36,304.00 437.09,304.00 457.82,304.00 478.55,304.00 499.27,304.00 520.00,304.00 540.73,304.00 561.45,304.00 582.18,304.00 602.91,304.00 623.64,304.00 644.36,304.00 665.09,304.00 685.82,304.00 706.55,304.00 727.27,304.00 748.00,304.00 768.73,304.00 789.45,304.00 810.18,304.00 830.91,304.00 851.64,304.00 872.36,304.00 893.09,304.00 913.82,304.00 934.55,304.00 955.27,304.00 976.00,304.00"/>
  <circle class="dot" cx="976.00" cy="304.00" r="4.5"/>
  
  <text class="axis" x="64.00" y="336" text-anchor="start">2026-02-21</text>
  <text class="axis" x="229.82" y="336" text-anchor="middle">2026-03-01</text>
  <text class="axis" x="395.64" y="336" text-anchor="middle">2026-03-09</text>
  <text class="axis" x="561.45" y="336" text-anchor="middle">2026-03-17</text>
  <text class="axis" x="727.27" y="336" text-anchor="middle">2026-03-25</text>
  <text class="axis" x="893.09" y="336" text-anchor="middle">2026-04-02</text>
  <text class="axis" x="976.00" y="336" text-anchor="end">2026-04-06</text>
  <text class="latest" x="976" y="34" text-anchor="end">Latest day: 0</text>
</svg>
