<?xml version="1.0" encoding="UTF-8"?>
<svg xmlns="http://www.w3.org/2000/svg" viewBox="0 0 1000 360" role="img" aria-label="Justagwas/github-downloads-action release downloads chart">
  <defs>
    <linearGradient id="fill-monthly-black" x1="0" y1="0" x2="0" y2="1">
      <stop offset="0%" stop-color="#22d3ee" stop-opacity="0.32"/>
      <stop offset="100%" stop-color="#22d3ee" stop-opacity="0.05"/>
    </linearGradient>
    <style>
      .bg { fill: #0b0b0d; }
      .title { font: 700 24px Arial, sans-serif; fill: #f8fafc; }
      .sub { font: 400 13px Arial, sans-serif; fill: #cbd5e1; }
      .grid { stroke: #1f2937; stroke-width: 1; }
      .axis { font: 400 12px Arial, sans-serif; fill: #94a3b8; }
      .line { fill: none; stroke: #22d3ee; stroke-width: 3; stroke-linecap: round; stroke-linejoin: round; }
      .dot { fill: #22d3ee; }
      .value { font: 600 11px Arial, sans-serif; fill: #cbd5e1; }
      .latest { font: 700 14px Arial, sans-serif; fill: #f8fafc; }
    </style>
  </defs>
  <rect class="bg" x="0" y="0" width="1000" height="360" rx="16" />
  <text class="title" x="64" y="34">Justagwas/github-downloads-action release downloads</text>
  <text class="sub" x="64" y="352">Generated 2026-03-10</text>
  <line x1="64" y1="52.00" x2="976" y2="52.00" class="grid"/>
  <text x="56" y="56.00" text-anchor="end" class="axis">1</text>
  <line x1="64" y1="94.00" x2="976" y2="94.00" class="grid"/>
  <text x="56" y="98.00" text-anchor="end" class="axis">1</text>
  <line x1="64" y1="136.00" x2="976" y2="136.00" class="grid"/>
  <text x="56" y="140.00" text-anchor="end" class="axis">1</text>
  <line x1="64" y1="178.00" x2="976" y2="178.00" class="grid"/>
  <text x="56" y="182.00" text-anchor="end" class="axis">1</text>
  <line x1="64" y1="220.00" x2="976" y2="220.00" class="grid"/>
  <text x="56" y="224.00" text-anchor="end" class="axis">0</text>
  <line x1="64" y1="262.00" x2="976" y2="262.00" class="grid"/>
  <text x="56" y="266.00" text-anchor="end" class="axis">0</text>
  <line x1="64" y1="304.00" x2="976" y2="304.00" class="grid"/>
  <text x="56" y="308.00" text-anchor="end" class="axis">0</text>
  <path d="M 64.00 304 L 64.00 304.00 L 117.65 304.00 L 171.29 304.00 L 224.94 304.00 L 278.59 304.00 L 332.24 304.00 L 385.88 304.00 L 439.53 304.00 L 493.18 304.00 L 546.82 304.00 L 600.47 304.00 L 654.12 304.00 L 707.76 304.00 L 761.41 304.00 L 815.06 304.00 L 868.71 304.00 L 922.35 304.00 L 976.00 304.00 L 976.00 304 Z" fill="url(#fill-monthly-black)"/>
  <polyline class="line" points="64.00,304.00 117.65,304.00 171.29,304.00 224.94,304.00 278.59,304.00 332.24,304.00 385.88,304.00 439.53,304.00 493.18,304.00 546.82,304.00 600.47,304.00 654.12,304.00 707.76,304.00 761.41,304.00 815.06,304.00 868.71,304.00 922.35,304.00 976.00,304.00"/>
  <circle class="dot" cx="976.00" cy="304.00" r="4.5"/>
  
  <text class="axis" x="64.00" y="336" text-anchor="start">2026-02-21</text>
  <text class="axis" x="224.94" y="336" text-anchor="middle">2026-02-24</text>
  <text class="axis" x="385.88" y="336" text-anchor="middle">2026-02-27</text>
  <text class="axis" x="546.82" y="336" text-anchor="middle">2026-03-02</text>
  <text class="axis" x="707.76" y="336" text-anchor="middle">2026-03-05</text>
  <text class="axis" x="868.71" y="336" text-anchor="middle">2026-03-08</text>
  <text class="axis" x="976.00" y="336" text-anchor="end">2026-03-10</text>
  <text class="latest" x="976" y="34" text-anchor="end">Latest month: 0</text>
</svg>
