<?xml version="1.0" encoding="UTF-8"?>
<svg xmlns="http://www.w3.org/2000/svg" viewBox="0 0 1000 360" role="img" aria-label="Justagwas/github-downloads-action release downloads chart">
  <defs>
    <linearGradient id="fill-monthly-orange" x1="0" y1="0" x2="0" y2="1">
      <stop offset="0%" stop-color="#f97316" stop-opacity="0.32"/>
      <stop offset="100%" stop-color="#f97316" stop-opacity="0.05"/>
    </linearGradient>
    <style>
      .bg { fill: #fff7ed; }
      .title { font: 700 24px Arial, sans-serif; fill: #7c2d12; }
      .sub { font: 400 13px Arial, sans-serif; fill: #9a3412; }
      .grid { stroke: #fed7aa; stroke-width: 1; }
      .axis { font: 400 12px Arial, sans-serif; fill: #c2410c; }
      .line { fill: none; stroke: #ea580c; stroke-width: 3; stroke-linecap: round; stroke-linejoin: round; }
      .dot { fill: #ea580c; }
      .value { font: 600 11px Arial, sans-serif; fill: #9a3412; }
      .latest { font: 700 14px Arial, sans-serif; fill: #7c2d12; }
    </style>
  </defs>
  <rect class="bg" x="0" y="0" width="1000" height="360" rx="16" />
  <text class="title" x="64" y="34">Justagwas/github-downloads-action release downloads</text>
  <text class="sub" x="64" y="352">Generated 2026-03-16</text>
  <line x1="64" y1="52.00" x2="976" y2="52.00" class="grid"/>
  <text x="56" y="56.00" text-anchor="end" class="axis">1</text>
  <line x1="64" y1="94.00" x2="976" y2="94.00" class="grid"/>
  <text x="56" y="98.00" text-anchor="end" class="axis">1</text>
  <line x1="64" y1="136.00" x2="976" y2="136.00" class="grid"/>
  <text x="56" y="140.00" text-anchor="end" class="axis">1</text>
  <line x1="64" y1="178.00" x2="976" y2="178.00" class="grid"/>
  <text x="56" y="182.00" text-anchor="end" class="axis">1</text>
  <line x1="64" y1="220.00" x2="976" y2="220.00" class="grid"/>
  <text x="56" y="224.00" text-anchor="end" class="axis">0</text>
  <line x1="64" y1="262.00" x2="976" y2="262.00" class="grid"/>
  <text x="56" y="266.00" text-anchor="end" class="axis">0</text>
  <line x1="64" y1="304.00" x2="976" y2="304.00" class="grid"/>
  <text x="56" y="308.00" text-anchor="end" class="axis">0</text>
  <path d="M 64.00 304 L 64.00 304.00 L 103.65 304.00 L 143.30 304.00 L 182.96 304.00 L 222.61 304.00 L 262.26 304.00 L 301.91 304.00 L 341.57 304.00 L 381.22 304.00 L 420.87 304.00 L 460.52 304.00 L 500.17 304.00 L 539.83 304.00 L 579.48 304.00 L 619.13 304.00 L 658.78 304.00 L 698.43 304.00 L 738.09 304.00 L 777.74 304.00 L 817.39 304.00 L 857.04 304.00 L 896.70 304.00 L 936.35 304.00 L 976.00 304.00 L 976.00 304 Z" fill="url(#fill-monthly-orange)"/>
  <polyline class="line" points="64.00,304.00 103.65,304.00 143.30,304.00 182.96,304.00 222.61,304.00 262.26,304.00 301.91,304.00 341.57,304.00 381.22,304.00 420.87,304.00 460.52,304.00 500.17,304.00 539.83,304.00 579.48,304.00 619.13,304.00 658.78,304.00 698.43,304.00 738.09,304.00 777.74,304.00 817.39,304.00 857.04,304.00 896.70,304.00 936.35,304.00 976.00,304.00"/>
  <circle class="dot" cx="976.00" cy="304.00" r="4.5"/>
  
  <text class="axis" x="64.00" y="336" text-anchor="start">2026-02-21</text>
  <text class="axis" x="222.61" y="336" text-anchor="middle">2026-02-25</text>
  <text class="axis" x="381.22" y="336" text-anchor="middle">2026-03-01</text>
  <text class="axis" x="539.83" y="336" text-anchor="middle">2026-03-05</text>
  <text class="axis" x="698.43" y="336" text-anchor="middle">2026-03-09</text>
  <text class="axis" x="857.04" y="336" text-anchor="middle">2026-03-13</text>
  <text class="axis" x="976.00" y="336" text-anchor="end">2026-03-16</text>
  <text class="latest" x="976" y="34" text-anchor="end">Latest month: 0</text>
</svg>
