<?xml version="1.0" encoding="UTF-8"?>
<svg xmlns="http://www.w3.org/2000/svg" viewBox="0 0 1000 360" role="img" aria-label="Justagwas/github-downloads-action release downloads chart">
  <defs>
    <linearGradient id="fill-monthly-slate" x1="0" y1="0" x2="0" y2="1">
      <stop offset="0%" stop-color="#60a5fa" stop-opacity="0.32"/>
      <stop offset="100%" stop-color="#60a5fa" stop-opacity="0.05"/>
    </linearGradient>
    <style>
      .bg { fill: #0f172a; }
      .title { font: 700 24px Arial, sans-serif; fill: #e2e8f0; }
      .sub { font: 400 13px Arial, sans-serif; fill: #94a3b8; }
      .grid { stroke: #1e293b; stroke-width: 1; }
      .axis { font: 400 12px Arial, sans-serif; fill: #94a3b8; }
      .line { fill: none; stroke: #60a5fa; stroke-width: 3; stroke-linecap: round; stroke-linejoin: round; }
      .dot { fill: #60a5fa; }
      .value { font: 600 11px Arial, sans-serif; fill: #cbd5e1; }
      .latest { font: 700 14px Arial, sans-serif; fill: #e2e8f0; }
    </style>
  </defs>
  <rect class="bg" x="0" y="0" width="1000" height="360" rx="16" />
  <text class="title" x="64" y="34">Justagwas/github-downloads-action release downloads</text>
  <text class="sub" x="64" y="352">Generated 2026-03-28</text>
  <line x1="64" y1="52.00" x2="976" y2="52.00" class="grid"/>
  <text x="56" y="56.00" text-anchor="end" class="axis">1</text>
  <line x1="64" y1="94.00" x2="976" y2="94.00" class="grid"/>
  <text x="56" y="98.00" text-anchor="end" class="axis">1</text>
  <line x1="64" y1="136.00" x2="976" y2="136.00" class="grid"/>
  <text x="56" y="140.00" text-anchor="end" class="axis">1</text>
  <line x1="64" y1="178.00" x2="976" y2="178.00" class="grid"/>
  <text x="56" y="182.00" text-anchor="end" class="axis">1</text>
  <line x1="64" y1="220.00" x2="976" y2="220.00" class="grid"/>
  <text x="56" y="224.00" text-anchor="end" class="axis">0</text>
  <line x1="64" y1="262.00" x2="976" y2="262.00" class="grid"/>
  <text x="56" y="266.00" text-anchor="end" class="axis">0</text>
  <line x1="64" y1="304.00" x2="976" y2="304.00" class="grid"/>
  <text x="56" y="308.00" text-anchor="end" class="axis">0</text>
  <path d="M 64.00 304 L 64.00 304.00 L 90.06 304.00 L 116.11 304.00 L 142.17 304.00 L 168.23 304.00 L 194.29 304.00 L 220.34 304.00 L 246.40 304.00 L 272.46 304.00 L 298.51 304.00 L 324.57 304.00 L 350.63 304.00 L 376.69 304.00 L 402.74 304.00 L 428.80 304.00 L 454.86 304.00 L 480.91 304.00 L 506.97 304.00 L 533.03 304.00 L 559.09 304.00 L 585.14 304.00 L 611.20 304.00 L 637.26 304.00 L 663.31 304.00 L 689.37 304.00 L 715.43 304.00 L 741.49 304.00 L 767.54 304.00 L 793.60 304.00 L 819.66 304.00 L 845.71 304.00 L 871.77 304.00 L 897.83 304.00 L 923.89 304.00 L 949.94 304.00 L 976.00 304.00 L 976.00 304 Z" fill="url(#fill-monthly-slate)"/>
  <polyline class="line" points="64.00,304.00 90.06,304.00 116.11,304.00 142.17,304.00 168.23,304.00 194.29,304.00 220.34,304.00 246.40,304.00 272.46,304.00 298.51,304.00 324.57,304.00 350.63,304.00 376.69,304.00 402.74,304.00 428.80,304.00 454.86,304.00 480.91,304.00 506.97,304.00 533.03,304.00 559.09,304.00 585.14,304.00 611.20,304.00 637.26,304.00 663.31,304.00 689.37,304.00 715.43,304.00 741.49,304.00 767.54,304.00 793.60,304.00 819.66,304.00 845.71,304.00 871.77,304.00 897.83,304.00 923.89,304.00 949.94,304.00 976.00,304.00"/>
  <circle class="dot" cx="976.00" cy="304.00" r="4.5"/>
  
  <text class="axis" x="64.00" y="336" text-anchor="start">2026-02-21</text>
  <text class="axis" x="246.40" y="336" text-anchor="middle">2026-02-28</text>
  <text class="axis" x="428.80" y="336" text-anchor="middle">2026-03-07</text>
  <text class="axis" x="611.20" y="336" text-anchor="middle">2026-03-14</text>
  <text class="axis" x="793.60" y="336" text-anchor="middle">2026-03-21</text>
  <text class="axis" x="976.00" y="336" text-anchor="end">2026-03-28</text>
  <text class="latest" x="976" y="34" text-anchor="end">Latest month: 0</text>
</svg>
