<?xml version="1.0" encoding="UTF-8"?>
<svg xmlns="http://www.w3.org/2000/svg" viewBox="0 0 1000 360" role="img" aria-label="Justagwas/github-downloads-action release downloads chart">
  <defs>
    <linearGradient id="fill-monthly-orange" x1="0" y1="0" x2="0" y2="1">
      <stop offset="0%" stop-color="#f97316" stop-opacity="0.32"/>
      <stop offset="100%" stop-color="#f97316" stop-opacity="0.05"/>
    </linearGradient>
    <style>
      .bg { fill: #fff7ed; }
      .title { font: 700 24px Arial, sans-serif; fill: #7c2d12; }
      .sub { font: 400 13px Arial, sans-serif; fill: #9a3412; }
      .grid { stroke: #fed7aa; stroke-width: 1; }
      .axis { font: 400 12px Arial, sans-serif; fill: #c2410c; }
      .line { fill: none; stroke: #ea580c; stroke-width: 3; stroke-linecap: round; stroke-linejoin: round; }
      .dot { fill: #ea580c; }
      .value { font: 600 11px Arial, sans-serif; fill: #9a3412; }
      .latest { font: 700 14px Arial, sans-serif; fill: #7c2d12; }
    </style>
  </defs>
  <rect class="bg" x="0" y="0" width="1000" height="360" rx="16" />
  <text class="title" x="64" y="34">Justagwas/github-downloads-action release downloads</text>
  <text class="sub" x="64" y="352">Generated 2026-04-04</text>
  <line x1="64" y1="52.00" x2="976" y2="52.00" class="grid"/>
  <text x="56" y="56.00" text-anchor="end" class="axis">1</text>
  <line x1="64" y1="94.00" x2="976" y2="94.00" class="grid"/>
  <text x="56" y="98.00" text-anchor="end" class="axis">1</text>
  <line x1="64" y1="136.00" x2="976" y2="136.00" class="grid"/>
  <text x="56" y="140.00" text-anchor="end" class="axis">1</text>
  <line x1="64" y1="178.00" x2="976" y2="178.00" class="grid"/>
  <text x="56" y="182.00" text-anchor="end" class="axis">1</text>
  <line x1="64" y1="220.00" x2="976" y2="220.00" class="grid"/>
  <text x="56" y="224.00" text-anchor="end" class="axis">0</text>
  <line x1="64" y1="262.00" x2="976" y2="262.00" class="grid"/>
  <text x="56" y="266.00" text-anchor="end" class="axis">0</text>
  <line x1="64" y1="304.00" x2="976" y2="304.00" class="grid"/>
  <text x="56" y="308.00" text-anchor="end" class="axis">0</text>
  <path d="M 64.00 304 L 64.00 304.00 L 85.71 304.00 L 107.43 304.00 L 129.14 304.00 L 150.86 304.00 L 172.57 304.00 L 194.29 304.00 L 216.00 304.00 L 237.71 304.00 L 259.43 304.00 L 281.14 304.00 L 302.86 304.00 L 324.57 304.00 L 346.29 304.00 L 368.00 304.00 L 389.71 304.00 L 411.43 304.00 L 433.14 304.00 L 454.86 304.00 L 476.57 304.00 L 498.29 304.00 L 520.00 304.00 L 541.71 304.00 L 563.43 304.00 L 585.14 304.00 L 606.86 304.00 L 628.57 304.00 L 650.29 304.00 L 672.00 304.00 L 693.71 304.00 L 715.43 304.00 L 737.14 304.00 L 758.86 304.00 L 780.57 304.00 L 802.29 304.00 L 824.00 304.00 L 845.71 304.00 L 867.43 304.00 L 889.14 304.00 L 910.86 304.00 L 932.57 304.00 L 954.29 304.00 L 976.00 304.00 L 976.00 304 Z" fill="url(#fill-monthly-orange)"/>
  <polyline class="line" points="64.00,304.00 85.71,304.00 107.43,304.00 129.14,304.00 150.86,304.00 172.57,304.00 194.29,304.00 216.00,304.00 237.71,304.00 259.43,304.00 281.14,304.00 302.86,304.00 324.57,304.00 346.29,304.00 368.00,304.00 389.71,304.00 411.43,304.00 433.14,304.00 454.86,304.00 476.57,304.00 498.29,304.00 520.00,304.00 541.71,304.00 563.43,304.00 585.14,304.00 606.86,304.00 628.57,304.00 650.29,304.00 672.00,304.00 693.71,304.00 715.43,304.00 737.14,304.00 758.86,304.00 780.57,304.00 802.29,304.00 824.00,304.00 845.71,304.00 867.43,304.00 889.14,304.00 910.86,304.00 932.57,304.00 954.29,304.00 976.00,304.00"/>
  <circle class="dot" cx="976.00" cy="304.00" r="4.5"/>
  
  <text class="axis" x="64.00" y="336" text-anchor="start">2026-02-21</text>
  <text class="axis" x="237.71" y="336" text-anchor="middle">2026-03-01</text>
  <text class="axis" x="411.43" y="336" text-anchor="middle">2026-03-09</text>
  <text class="axis" x="585.14" y="336" text-anchor="middle">2026-03-17</text>
  <text class="axis" x="758.86" y="336" text-anchor="middle">2026-03-25</text>
  <text class="axis" x="932.57" y="336" text-anchor="middle">2026-04-02</text>
  <text class="axis" x="976.00" y="336" text-anchor="end">2026-04-04</text>
  <text class="latest" x="976" y="34" text-anchor="end">Latest month: 0</text>
</svg>
