<?xml version="1.0" encoding="UTF-8"?>
<svg xmlns="http://www.w3.org/2000/svg" viewBox="0 0 1000 360" role="img" aria-label="Justagwas/github-downloads-action release downloads chart">
  <defs>
    <linearGradient id="fill-monthly-black" x1="0" y1="0" x2="0" y2="1">
      <stop offset="0%" stop-color="#22d3ee" stop-opacity="0.32"/>
      <stop offset="100%" stop-color="#22d3ee" stop-opacity="0.05"/>
    </linearGradient>
    <style>
      .bg { fill: #0b0b0d; }
      .title { font: 700 24px Arial, sans-serif; fill: #f8fafc; }
      .sub { font: 400 13px Arial, sans-serif; fill: #cbd5e1; }
      .grid { stroke: #1f2937; stroke-width: 1; }
      .axis { font: 400 12px Arial, sans-serif; fill: #94a3b8; }
      .line { fill: none; stroke: #22d3ee; stroke-width: 3; stroke-linecap: round; stroke-linejoin: round; }
      .dot { fill: #22d3ee; }
      .value { font: 600 11px Arial, sans-serif; fill: #cbd5e1; }
      .latest { font: 700 14px Arial, sans-serif; fill: #f8fafc; }
    </style>
  </defs>
  <rect class="bg" x="0" y="0" width="1000" height="360" rx="16" />
  <text class="title" x="64" y="34">Justagwas/github-downloads-action release downloads</text>
  <text class="sub" x="64" y="352">Generated 2026-03-29</text>
  <line x1="64" y1="52.00" x2="976" y2="52.00" class="grid"/>
  <text x="56" y="56.00" text-anchor="end" class="axis">1</text>
  <line x1="64" y1="94.00" x2="976" y2="94.00" class="grid"/>
  <text x="56" y="98.00" text-anchor="end" class="axis">1</text>
  <line x1="64" y1="136.00" x2="976" y2="136.00" class="grid"/>
  <text x="56" y="140.00" text-anchor="end" class="axis">1</text>
  <line x1="64" y1="178.00" x2="976" y2="178.00" class="grid"/>
  <text x="56" y="182.00" text-anchor="end" class="axis">1</text>
  <line x1="64" y1="220.00" x2="976" y2="220.00" class="grid"/>
  <text x="56" y="224.00" text-anchor="end" class="axis">0</text>
  <line x1="64" y1="262.00" x2="976" y2="262.00" class="grid"/>
  <text x="56" y="266.00" text-anchor="end" class="axis">0</text>
  <line x1="64" y1="304.00" x2="976" y2="304.00" class="grid"/>
  <text x="56" y="308.00" text-anchor="end" class="axis">0</text>
  <path d="M 64.00 304 L 64.00 304.00 L 89.33 304.00 L 114.67 304.00 L 140.00 304.00 L 165.33 304.00 L 190.67 304.00 L 216.00 304.00 L 241.33 304.00 L 266.67 304.00 L 292.00 304.00 L 317.33 304.00 L 342.67 304.00 L 368.00 304.00 L 393.33 304.00 L 418.67 304.00 L 444.00 304.00 L 469.33 304.00 L 494.67 304.00 L 520.00 304.00 L 545.33 304.00 L 570.67 304.00 L 596.00 304.00 L 621.33 304.00 L 646.67 304.00 L 672.00 304.00 L 697.33 304.00 L 722.67 304.00 L 748.00 304.00 L 773.33 304.00 L 798.67 304.00 L 824.00 304.00 L 849.33 304.00 L 874.67 304.00 L 900.00 304.00 L 925.33 304.00 L 950.67 304.00 L 976.00 304.00 L 976.00 304 Z" fill="url(#fill-monthly-black)"/>
  <polyline class="line" points="64.00,304.00 89.33,304.00 114.67,304.00 140.00,304.00 165.33,304.00 190.67,304.00 216.00,304.00 241.33,304.00 266.67,304.00 292.00,304.00 317.33,304.00 342.67,304.00 368.00,304.00 393.33,304.00 418.67,304.00 444.00,304.00 469.33,304.00 494.67,304.00 520.00,304.00 545.33,304.00 570.67,304.00 596.00,304.00 621.33,304.00 646.67,304.00 672.00,304.00 697.33,304.00 722.67,304.00 748.00,304.00 773.33,304.00 798.67,304.00 824.00,304.00 849.33,304.00 874.67,304.00 900.00,304.00 925.33,304.00 950.67,304.00 976.00,304.00"/>
  <circle class="dot" cx="976.00" cy="304.00" r="4.5"/>
  
  <text class="axis" x="64.00" y="336" text-anchor="start">2026-02-21</text>
  <text class="axis" x="241.33" y="336" text-anchor="middle">2026-02-28</text>
  <text class="axis" x="418.67" y="336" text-anchor="middle">2026-03-07</text>
  <text class="axis" x="596.00" y="336" text-anchor="middle">2026-03-14</text>
  <text class="axis" x="773.33" y="336" text-anchor="middle">2026-03-21</text>
  <text class="axis" x="950.67" y="336" text-anchor="middle">2026-03-28</text>
  <text class="axis" x="976.00" y="336" text-anchor="end">2026-03-29</text>
  <text class="latest" x="976" y="34" text-anchor="end">Latest month: 0</text>
</svg>
