<?xml version="1.0" encoding="UTF-8"?>
<svg xmlns="http://www.w3.org/2000/svg" viewBox="0 0 1000 360" role="img" aria-label="Justagwas/github-downloads-action release downloads chart">
  <defs>
    <linearGradient id="fill-monthly-orange" x1="0" y1="0" x2="0" y2="1">
      <stop offset="0%" stop-color="#f97316" stop-opacity="0.32"/>
      <stop offset="100%" stop-color="#f97316" stop-opacity="0.05"/>
    </linearGradient>
    <style>
      .bg { fill: #fff7ed; }
      .title { font: 700 24px Arial, sans-serif; fill: #7c2d12; }
      .sub { font: 400 13px Arial, sans-serif; fill: #9a3412; }
      .grid { stroke: #fed7aa; stroke-width: 1; }
      .axis { font: 400 12px Arial, sans-serif; fill: #c2410c; }
      .line { fill: none; stroke: #ea580c; stroke-width: 3; stroke-linecap: round; stroke-linejoin: round; }
      .dot { fill: #ea580c; }
      .value { font: 600 11px Arial, sans-serif; fill: #9a3412; }
      .latest { font: 700 14px Arial, sans-serif; fill: #7c2d12; }
    </style>
  </defs>
  <rect class="bg" x="0" y="0" width="1000" height="360" rx="16" />
  <text class="title" x="64" y="34">Justagwas/github-downloads-action release downloads</text>
  <text class="sub" x="64" y="352">Generated 2026-03-23</text>
  <line x1="64" y1="52.00" x2="976" y2="52.00" class="grid"/>
  <text x="56" y="56.00" text-anchor="end" class="axis">1</text>
  <line x1="64" y1="94.00" x2="976" y2="94.00" class="grid"/>
  <text x="56" y="98.00" text-anchor="end" class="axis">1</text>
  <line x1="64" y1="136.00" x2="976" y2="136.00" class="grid"/>
  <text x="56" y="140.00" text-anchor="end" class="axis">1</text>
  <line x1="64" y1="178.00" x2="976" y2="178.00" class="grid"/>
  <text x="56" y="182.00" text-anchor="end" class="axis">1</text>
  <line x1="64" y1="220.00" x2="976" y2="220.00" class="grid"/>
  <text x="56" y="224.00" text-anchor="end" class="axis">0</text>
  <line x1="64" y1="262.00" x2="976" y2="262.00" class="grid"/>
  <text x="56" y="266.00" text-anchor="end" class="axis">0</text>
  <line x1="64" y1="304.00" x2="976" y2="304.00" class="grid"/>
  <text x="56" y="308.00" text-anchor="end" class="axis">0</text>
  <path d="M 64.00 304 L 64.00 304.00 L 94.40 304.00 L 124.80 304.00 L 155.20 304.00 L 185.60 304.00 L 216.00 304.00 L 246.40 304.00 L 276.80 304.00 L 307.20 304.00 L 337.60 304.00 L 368.00 304.00 L 398.40 304.00 L 428.80 304.00 L 459.20 304.00 L 489.60 304.00 L 520.00 304.00 L 550.40 304.00 L 580.80 304.00 L 611.20 304.00 L 641.60 304.00 L 672.00 304.00 L 702.40 304.00 L 732.80 304.00 L 763.20 304.00 L 793.60 304.00 L 824.00 304.00 L 854.40 304.00 L 884.80 304.00 L 915.20 304.00 L 945.60 304.00 L 976.00 304.00 L 976.00 304 Z" fill="url(#fill-monthly-orange)"/>
  <polyline class="line" points="64.00,304.00 94.40,304.00 124.80,304.00 155.20,304.00 185.60,304.00 216.00,304.00 246.40,304.00 276.80,304.00 307.20,304.00 337.60,304.00 368.00,304.00 398.40,304.00 428.80,304.00 459.20,304.00 489.60,304.00 520.00,304.00 550.40,304.00 580.80,304.00 611.20,304.00 641.60,304.00 672.00,304.00 702.40,304.00 732.80,304.00 763.20,304.00 793.60,304.00 824.00,304.00 854.40,304.00 884.80,304.00 915.20,304.00 945.60,304.00 976.00,304.00"/>
  <circle class="dot" cx="976.00" cy="304.00" r="4.5"/>
  
  <text class="axis" x="64.00" y="336" text-anchor="start">2026-02-21</text>
  <text class="axis" x="246.40" y="336" text-anchor="middle">2026-02-27</text>
  <text class="axis" x="428.80" y="336" text-anchor="middle">2026-03-05</text>
  <text class="axis" x="611.20" y="336" text-anchor="middle">2026-03-11</text>
  <text class="axis" x="793.60" y="336" text-anchor="middle">2026-03-17</text>
  <text class="axis" x="976.00" y="336" text-anchor="end">2026-03-23</text>
  <text class="latest" x="976" y="34" text-anchor="end">Latest month: 0</text>
</svg>
