<?xml version="1.0" encoding="UTF-8"?>
<svg xmlns="http://www.w3.org/2000/svg" viewBox="0 0 1000 360" role="img" aria-label="Justagwas/github-downloads-action release downloads chart">
  <defs>
    <linearGradient id="fill-monthly-slate" x1="0" y1="0" x2="0" y2="1">
      <stop offset="0%" stop-color="#60a5fa" stop-opacity="0.32"/>
      <stop offset="100%" stop-color="#60a5fa" stop-opacity="0.05"/>
    </linearGradient>
    <style>
      .bg { fill: #0f172a; }
      .title { font: 700 24px Arial, sans-serif; fill: #e2e8f0; }
      .sub { font: 400 13px Arial, sans-serif; fill: #94a3b8; }
      .grid { stroke: #1e293b; stroke-width: 1; }
      .axis { font: 400 12px Arial, sans-serif; fill: #94a3b8; }
      .line { fill: none; stroke: #60a5fa; stroke-width: 3; stroke-linecap: round; stroke-linejoin: round; }
      .dot { fill: #60a5fa; }
      .value { font: 600 11px Arial, sans-serif; fill: #cbd5e1; }
      .latest { font: 700 14px Arial, sans-serif; fill: #e2e8f0; }
    </style>
  </defs>
  <rect class="bg" x="0" y="0" width="1000" height="360" rx="16" />
  <text class="title" x="64" y="34">Justagwas/github-downloads-action release downloads</text>
  <text class="sub" x="64" y="352">Generated 2026-03-18</text>
  <line x1="64" y1="52.00" x2="976" y2="52.00" class="grid"/>
  <text x="56" y="56.00" text-anchor="end" class="axis">1</text>
  <line x1="64" y1="94.00" x2="976" y2="94.00" class="grid"/>
  <text x="56" y="98.00" text-anchor="end" class="axis">1</text>
  <line x1="64" y1="136.00" x2="976" y2="136.00" class="grid"/>
  <text x="56" y="140.00" text-anchor="end" class="axis">1</text>
  <line x1="64" y1="178.00" x2="976" y2="178.00" class="grid"/>
  <text x="56" y="182.00" text-anchor="end" class="axis">1</text>
  <line x1="64" y1="220.00" x2="976" y2="220.00" class="grid"/>
  <text x="56" y="224.00" text-anchor="end" class="axis">0</text>
  <line x1="64" y1="262.00" x2="976" y2="262.00" class="grid"/>
  <text x="56" y="266.00" text-anchor="end" class="axis">0</text>
  <line x1="64" y1="304.00" x2="976" y2="304.00" class="grid"/>
  <text x="56" y="308.00" text-anchor="end" class="axis">0</text>
  <path d="M 64.00 304 L 64.00 304.00 L 100.48 304.00 L 136.96 304.00 L 173.44 304.00 L 209.92 304.00 L 246.40 304.00 L 282.88 304.00 L 319.36 304.00 L 355.84 304.00 L 392.32 304.00 L 428.80 304.00 L 465.28 304.00 L 501.76 304.00 L 538.24 304.00 L 574.72 304.00 L 611.20 304.00 L 647.68 304.00 L 684.16 304.00 L 720.64 304.00 L 757.12 304.00 L 793.60 304.00 L 830.08 304.00 L 866.56 304.00 L 903.04 304.00 L 939.52 304.00 L 976.00 304.00 L 976.00 304 Z" fill="url(#fill-monthly-slate)"/>
  <polyline class="line" points="64.00,304.00 100.48,304.00 136.96,304.00 173.44,304.00 209.92,304.00 246.40,304.00 282.88,304.00 319.36,304.00 355.84,304.00 392.32,304.00 428.80,304.00 465.28,304.00 501.76,304.00 538.24,304.00 574.72,304.00 611.20,304.00 647.68,304.00 684.16,304.00 720.64,304.00 757.12,304.00 793.60,304.00 830.08,304.00 866.56,304.00 903.04,304.00 939.52,304.00 976.00,304.00"/>
  <circle class="dot" cx="976.00" cy="304.00" r="4.5"/>
  
  <text class="axis" x="64.00" y="336" text-anchor="start">2026-02-21</text>
  <text class="axis" x="246.40" y="336" text-anchor="middle">2026-02-26</text>
  <text class="axis" x="428.80" y="336" text-anchor="middle">2026-03-03</text>
  <text class="axis" x="611.20" y="336" text-anchor="middle">2026-03-08</text>
  <text class="axis" x="793.60" y="336" text-anchor="middle">2026-03-13</text>
  <text class="axis" x="976.00" y="336" text-anchor="end">2026-03-18</text>
  <text class="latest" x="976" y="34" text-anchor="end">Latest month: 0</text>
</svg>
