<?xml version="1.0" encoding="UTF-8"?>
<svg xmlns="http://www.w3.org/2000/svg" viewBox="0 0 1000 360" role="img" aria-label="Justagwas/github-downloads-action release downloads chart">
  <defs>
    <linearGradient id="fill-total-trend-slate" x1="0" y1="0" x2="0" y2="1">
      <stop offset="0%" stop-color="#60a5fa" stop-opacity="0.32"/>
      <stop offset="100%" stop-color="#60a5fa" stop-opacity="0.05"/>
    </linearGradient>
    <style>
      .bg { fill: #0f172a; }
      .title { font: 700 24px Arial, sans-serif; fill: #e2e8f0; }
      .sub { font: 400 13px Arial, sans-serif; fill: #94a3b8; }
      .grid { stroke: #1e293b; stroke-width: 1; }
      .axis { font: 400 12px Arial, sans-serif; fill: #94a3b8; }
      .line { fill: none; stroke: #60a5fa; stroke-width: 3; stroke-linecap: round; stroke-linejoin: round; }
      .dot { fill: #60a5fa; }
      .value { font: 600 11px Arial, sans-serif; fill: #cbd5e1; }
      .latest { font: 700 14px Arial, sans-serif; fill: #e2e8f0; }
    </style>
  </defs>
  <rect class="bg" x="0" y="0" width="1000" height="360" rx="16" />
  <text class="title" x="64" y="34">Justagwas/github-downloads-action release downloads</text>
  <text class="sub" x="64" y="352">Generated 2026-04-05</text>
  <line x1="64" y1="52.00" x2="976" y2="52.00" class="grid"/>
  <text x="56" y="56.00" text-anchor="end" class="axis">1</text>
  <line x1="64" y1="94.00" x2="976" y2="94.00" class="grid"/>
  <text x="56" y="98.00" text-anchor="end" class="axis">1</text>
  <line x1="64" y1="136.00" x2="976" y2="136.00" class="grid"/>
  <text x="56" y="140.00" text-anchor="end" class="axis">1</text>
  <line x1="64" y1="178.00" x2="976" y2="178.00" class="grid"/>
  <text x="56" y="182.00" text-anchor="end" class="axis">1</text>
  <line x1="64" y1="220.00" x2="976" y2="220.00" class="grid"/>
  <text x="56" y="224.00" text-anchor="end" class="axis">0</text>
  <line x1="64" y1="262.00" x2="976" y2="262.00" class="grid"/>
  <text x="56" y="266.00" text-anchor="end" class="axis">0</text>
  <line x1="64" y1="304.00" x2="976" y2="304.00" class="grid"/>
  <text x="56" y="308.00" text-anchor="end" class="axis">0</text>
  <path d="M 64.00 304 L 64.00 304.00 L 85.21 304.00 L 106.42 304.00 L 127.63 304.00 L 148.84 304.00 L 170.05 304.00 L 191.26 304.00 L 212.47 304.00 L 233.67 304.00 L 254.88 304.00 L 276.09 304.00 L 297.30 304.00 L 318.51 304.00 L 339.72 304.00 L 360.93 304.00 L 382.14 304.00 L 403.35 304.00 L 424.56 304.00 L 445.77 304.00 L 466.98 304.00 L 488.19 304.00 L 509.40 304.00 L 530.60 304.00 L 551.81 304.00 L 573.02 304.00 L 594.23 304.00 L 615.44 304.00 L 636.65 304.00 L 657.86 304.00 L 679.07 304.00 L 700.28 304.00 L 721.49 304.00 L 742.70 304.00 L 763.91 304.00 L 785.12 304.00 L 806.33 304.00 L 827.53 304.00 L 848.74 304.00 L 869.95 304.00 L 891.16 304.00 L 912.37 304.00 L 933.58 304.00 L 954.79 304.00 L 976.00 304.00 L 976.00 304 Z" fill="url(#fill-total-trend-slate)"/>
  <polyline class="line" points="64.00,304.00 85.21,304.00 106.42,304.00 127.63,304.00 148.84,304.00 170.05,304.00 191.26,304.00 212.47,304.00 233.67,304.00 254.88,304.00 276.09,304.00 297.30,304.00 318.51,304.00 339.72,304.00 360.93,304.00 382.14,304.00 403.35,304.00 424.56,304.00 445.77,304.00 466.98,304.00 488.19,304.00 509.40,304.00 530.60,304.00 551.81,304.00 573.02,304.00 594.23,304.00 615.44,304.00 636.65,304.00 657.86,304.00 679.07,304.00 700.28,304.00 721.49,304.00 742.70,304.00 763.91,304.00 785.12,304.00 806.33,304.00 827.53,304.00 848.74,304.00 869.95,304.00 891.16,304.00 912.37,304.00 933.58,304.00 954.79,304.00 976.00,304.00"/>
  <circle class="dot" cx="976.00" cy="304.00" r="4.5"/>
  
  <text class="axis" x="64.00" y="336" text-anchor="start">2026-02-21</text>
  <text class="axis" x="233.67" y="336" text-anchor="middle">2026-03-01</text>
  <text class="axis" x="403.35" y="336" text-anchor="middle">2026-03-09</text>
  <text class="axis" x="573.02" y="336" text-anchor="middle">2026-03-17</text>
  <text class="axis" x="742.70" y="336" text-anchor="middle">2026-03-25</text>
  <text class="axis" x="912.37" y="336" text-anchor="middle">2026-04-02</text>
  <text class="axis" x="976.00" y="336" text-anchor="end">2026-04-05</text>
  <text class="latest" x="976" y="34" text-anchor="end">Latest total: 0</text>
</svg>
