<?xml version="1.0" encoding="UTF-8"?>
<svg xmlns="http://www.w3.org/2000/svg" viewBox="0 0 1000 360" role="img" aria-label="Justagwas/github-downloads-action release downloads chart">
  <defs>
    <linearGradient id="fill-total-trend-orange" x1="0" y1="0" x2="0" y2="1">
      <stop offset="0%" stop-color="#f97316" stop-opacity="0.32"/>
      <stop offset="100%" stop-color="#f97316" stop-opacity="0.05"/>
    </linearGradient>
    <style>
      .bg { fill: #fff7ed; }
      .title { font: 700 24px Arial, sans-serif; fill: #7c2d12; }
      .sub { font: 400 13px Arial, sans-serif; fill: #9a3412; }
      .grid { stroke: #fed7aa; stroke-width: 1; }
      .axis { font: 400 12px Arial, sans-serif; fill: #c2410c; }
      .line { fill: none; stroke: #ea580c; stroke-width: 3; stroke-linecap: round; stroke-linejoin: round; }
      .dot { fill: #ea580c; }
      .value { font: 600 11px Arial, sans-serif; fill: #9a3412; }
      .latest { font: 700 14px Arial, sans-serif; fill: #7c2d12; }
    </style>
  </defs>
  <rect class="bg" x="0" y="0" width="1000" height="360" rx="16" />
  <text class="title" x="64" y="34">Justagwas/github-downloads-action release downloads</text>
  <text class="sub" x="64" y="352">Generated 2026-03-25</text>
  <line x1="64" y1="52.00" x2="976" y2="52.00" class="grid"/>
  <text x="56" y="56.00" text-anchor="end" class="axis">1</text>
  <line x1="64" y1="94.00" x2="976" y2="94.00" class="grid"/>
  <text x="56" y="98.00" text-anchor="end" class="axis">1</text>
  <line x1="64" y1="136.00" x2="976" y2="136.00" class="grid"/>
  <text x="56" y="140.00" text-anchor="end" class="axis">1</text>
  <line x1="64" y1="178.00" x2="976" y2="178.00" class="grid"/>
  <text x="56" y="182.00" text-anchor="end" class="axis">1</text>
  <line x1="64" y1="220.00" x2="976" y2="220.00" class="grid"/>
  <text x="56" y="224.00" text-anchor="end" class="axis">0</text>
  <line x1="64" y1="262.00" x2="976" y2="262.00" class="grid"/>
  <text x="56" y="266.00" text-anchor="end" class="axis">0</text>
  <line x1="64" y1="304.00" x2="976" y2="304.00" class="grid"/>
  <text x="56" y="308.00" text-anchor="end" class="axis">0</text>
  <path d="M 64.00 304 L 64.00 304.00 L 92.50 304.00 L 121.00 304.00 L 149.50 304.00 L 178.00 304.00 L 206.50 304.00 L 235.00 304.00 L 263.50 304.00 L 292.00 304.00 L 320.50 304.00 L 349.00 304.00 L 377.50 304.00 L 406.00 304.00 L 434.50 304.00 L 463.00 304.00 L 491.50 304.00 L 520.00 304.00 L 548.50 304.00 L 577.00 304.00 L 605.50 304.00 L 634.00 304.00 L 662.50 304.00 L 691.00 304.00 L 719.50 304.00 L 748.00 304.00 L 776.50 304.00 L 805.00 304.00 L 833.50 304.00 L 862.00 304.00 L 890.50 304.00 L 919.00 304.00 L 947.50 304.00 L 976.00 304.00 L 976.00 304 Z" fill="url(#fill-total-trend-orange)"/>
  <polyline class="line" points="64.00,304.00 92.50,304.00 121.00,304.00 149.50,304.00 178.00,304.00 206.50,304.00 235.00,304.00 263.50,304.00 292.00,304.00 320.50,304.00 349.00,304.00 377.50,304.00 406.00,304.00 434.50,304.00 463.00,304.00 491.50,304.00 520.00,304.00 548.50,304.00 577.00,304.00 605.50,304.00 634.00,304.00 662.50,304.00 691.00,304.00 719.50,304.00 748.00,304.00 776.50,304.00 805.00,304.00 833.50,304.00 862.00,304.00 890.50,304.00 919.00,304.00 947.50,304.00 976.00,304.00"/>
  <circle class="dot" cx="976.00" cy="304.00" r="4.5"/>
  
  <text class="axis" x="64.00" y="336" text-anchor="start">2026-02-21</text>
  <text class="axis" x="235.00" y="336" text-anchor="middle">2026-02-27</text>
  <text class="axis" x="406.00" y="336" text-anchor="middle">2026-03-05</text>
  <text class="axis" x="577.00" y="336" text-anchor="middle">2026-03-11</text>
  <text class="axis" x="748.00" y="336" text-anchor="middle">2026-03-17</text>
  <text class="axis" x="919.00" y="336" text-anchor="middle">2026-03-23</text>
  <text class="axis" x="976.00" y="336" text-anchor="end">2026-03-25</text>
  <text class="latest" x="976" y="34" text-anchor="end">Latest total: 0</text>
</svg>
