<?xml version="1.0" encoding="UTF-8"?>
<svg xmlns="http://www.w3.org/2000/svg" viewBox="0 0 1000 360" role="img" aria-label="Justagwas/github-downloads-action release downloads chart">
  <defs>
    <linearGradient id="fill-weekly-slate" x1="0" y1="0" x2="0" y2="1">
      <stop offset="0%" stop-color="#60a5fa" stop-opacity="0.32"/>
      <stop offset="100%" stop-color="#60a5fa" stop-opacity="0.05"/>
    </linearGradient>
    <style>
      .bg { fill: #0f172a; }
      .title { font: 700 24px Arial, sans-serif; fill: #e2e8f0; }
      .sub { font: 400 13px Arial, sans-serif; fill: #94a3b8; }
      .grid { stroke: #1e293b; stroke-width: 1; }
      .axis { font: 400 12px Arial, sans-serif; fill: #94a3b8; }
      .line { fill: none; stroke: #60a5fa; stroke-width: 3; stroke-linecap: round; stroke-linejoin: round; }
      .dot { fill: #60a5fa; }
      .value { font: 600 11px Arial, sans-serif; fill: #cbd5e1; }
      .latest { font: 700 14px Arial, sans-serif; fill: #e2e8f0; }
    </style>
  </defs>
  <rect class="bg" x="0" y="0" width="1000" height="360" rx="16" />
  <text class="title" x="64" y="34">Justagwas/github-downloads-action release downloads</text>
  <text class="sub" x="64" y="352">Generated 2026-04-03</text>
  <line x1="64" y1="52.00" x2="976" y2="52.00" class="grid"/>
  <text x="56" y="56.00" text-anchor="end" class="axis">1</text>
  <line x1="64" y1="94.00" x2="976" y2="94.00" class="grid"/>
  <text x="56" y="98.00" text-anchor="end" class="axis">1</text>
  <line x1="64" y1="136.00" x2="976" y2="136.00" class="grid"/>
  <text x="56" y="140.00" text-anchor="end" class="axis">1</text>
  <line x1="64" y1="178.00" x2="976" y2="178.00" class="grid"/>
  <text x="56" y="182.00" text-anchor="end" class="axis">1</text>
  <line x1="64" y1="220.00" x2="976" y2="220.00" class="grid"/>
  <text x="56" y="224.00" text-anchor="end" class="axis">0</text>
  <line x1="64" y1="262.00" x2="976" y2="262.00" class="grid"/>
  <text x="56" y="266.00" text-anchor="end" class="axis">0</text>
  <line x1="64" y1="304.00" x2="976" y2="304.00" class="grid"/>
  <text x="56" y="308.00" text-anchor="end" class="axis">0</text>
  <path d="M 64.00 304 L 64.00 304.00 L 86.24 304.00 L 108.49 304.00 L 130.73 304.00 L 152.98 304.00 L 175.22 304.00 L 197.46 304.00 L 219.71 304.00 L 241.95 304.00 L 264.20 304.00 L 286.44 304.00 L 308.68 304.00 L 330.93 304.00 L 353.17 304.00 L 375.41 304.00 L 397.66 304.00 L 419.90 304.00 L 442.15 304.00 L 464.39 304.00 L 486.63 304.00 L 508.88 304.00 L 531.12 304.00 L 553.37 304.00 L 575.61 304.00 L 597.85 304.00 L 620.10 304.00 L 642.34 304.00 L 664.59 304.00 L 686.83 304.00 L 709.07 304.00 L 731.32 304.00 L 753.56 304.00 L 775.80 304.00 L 798.05 304.00 L 820.29 304.00 L 842.54 304.00 L 864.78 304.00 L 887.02 304.00 L 909.27 304.00 L 931.51 304.00 L 953.76 304.00 L 976.00 304.00 L 976.00 304 Z" fill="url(#fill-weekly-slate)"/>
  <polyline class="line" points="64.00,304.00 86.24,304.00 108.49,304.00 130.73,304.00 152.98,304.00 175.22,304.00 197.46,304.00 219.71,304.00 241.95,304.00 264.20,304.00 286.44,304.00 308.68,304.00 330.93,304.00 353.17,304.00 375.41,304.00 397.66,304.00 419.90,304.00 442.15,304.00 464.39,304.00 486.63,304.00 508.88,304.00 531.12,304.00 553.37,304.00 575.61,304.00 597.85,304.00 620.10,304.00 642.34,304.00 664.59,304.00 686.83,304.00 709.07,304.00 731.32,304.00 753.56,304.00 775.80,304.00 798.05,304.00 820.29,304.00 842.54,304.00 864.78,304.00 887.02,304.00 909.27,304.00 931.51,304.00 953.76,304.00 976.00,304.00"/>
  <circle class="dot" cx="976.00" cy="304.00" r="4.5"/>
  
  <text class="axis" x="64.00" y="336" text-anchor="start">2026-02-21</text>
  <text class="axis" x="241.95" y="336" text-anchor="middle">2026-03-01</text>
  <text class="axis" x="419.90" y="336" text-anchor="middle">2026-03-09</text>
  <text class="axis" x="597.85" y="336" text-anchor="middle">2026-03-17</text>
  <text class="axis" x="775.80" y="336" text-anchor="middle">2026-03-25</text>
  <text class="axis" x="953.76" y="336" text-anchor="middle">2026-04-02</text>
  <text class="axis" x="976.00" y="336" text-anchor="end">2026-04-03</text>
  <text class="latest" x="976" y="34" text-anchor="end">Latest week: 0</text>
</svg>
