<?xml version="1.0" encoding="UTF-8"?>
<svg xmlns="http://www.w3.org/2000/svg" viewBox="0 0 1000 360" role="img" aria-label="Justagwas/github-downloads-action release downloads chart">
  <defs>
    <linearGradient id="fill-weekly-slate" x1="0" y1="0" x2="0" y2="1">
      <stop offset="0%" stop-color="#60a5fa" stop-opacity="0.32"/>
      <stop offset="100%" stop-color="#60a5fa" stop-opacity="0.05"/>
    </linearGradient>
    <style>
      .bg { fill: #0f172a; }
      .title { font: 700 24px Arial, sans-serif; fill: #e2e8f0; }
      .sub { font: 400 13px Arial, sans-serif; fill: #94a3b8; }
      .grid { stroke: #1e293b; stroke-width: 1; }
      .axis { font: 400 12px Arial, sans-serif; fill: #94a3b8; }
      .line { fill: none; stroke: #60a5fa; stroke-width: 3; stroke-linecap: round; stroke-linejoin: round; }
      .dot { fill: #60a5fa; }
      .value { font: 600 11px Arial, sans-serif; fill: #cbd5e1; }
      .latest { font: 700 14px Arial, sans-serif; fill: #e2e8f0; }
    </style>
  </defs>
  <rect class="bg" x="0" y="0" width="1000" height="360" rx="16" />
  <text class="title" x="64" y="34">Justagwas/github-downloads-action release downloads</text>
  <text class="sub" x="64" y="352">Generated 2026-03-26</text>
  <line x1="64" y1="52.00" x2="976" y2="52.00" class="grid"/>
  <text x="56" y="56.00" text-anchor="end" class="axis">1</text>
  <line x1="64" y1="94.00" x2="976" y2="94.00" class="grid"/>
  <text x="56" y="98.00" text-anchor="end" class="axis">1</text>
  <line x1="64" y1="136.00" x2="976" y2="136.00" class="grid"/>
  <text x="56" y="140.00" text-anchor="end" class="axis">1</text>
  <line x1="64" y1="178.00" x2="976" y2="178.00" class="grid"/>
  <text x="56" y="182.00" text-anchor="end" class="axis">1</text>
  <line x1="64" y1="220.00" x2="976" y2="220.00" class="grid"/>
  <text x="56" y="224.00" text-anchor="end" class="axis">0</text>
  <line x1="64" y1="262.00" x2="976" y2="262.00" class="grid"/>
  <text x="56" y="266.00" text-anchor="end" class="axis">0</text>
  <line x1="64" y1="304.00" x2="976" y2="304.00" class="grid"/>
  <text x="56" y="308.00" text-anchor="end" class="axis">0</text>
  <path d="M 64.00 304 L 64.00 304.00 L 91.64 304.00 L 119.27 304.00 L 146.91 304.00 L 174.55 304.00 L 202.18 304.00 L 229.82 304.00 L 257.45 304.00 L 285.09 304.00 L 312.73 304.00 L 340.36 304.00 L 368.00 304.00 L 395.64 304.00 L 423.27 304.00 L 450.91 304.00 L 478.55 304.00 L 506.18 304.00 L 533.82 304.00 L 561.45 304.00 L 589.09 304.00 L 616.73 304.00 L 644.36 304.00 L 672.00 304.00 L 699.64 304.00 L 727.27 304.00 L 754.91 304.00 L 782.55 304.00 L 810.18 304.00 L 837.82 304.00 L 865.45 304.00 L 893.09 304.00 L 920.73 304.00 L 948.36 304.00 L 976.00 304.00 L 976.00 304 Z" fill="url(#fill-weekly-slate)"/>
  <polyline class="line" points="64.00,304.00 91.64,304.00 119.27,304.00 146.91,304.00 174.55,304.00 202.18,304.00 229.82,304.00 257.45,304.00 285.09,304.00 312.73,304.00 340.36,304.00 368.00,304.00 395.64,304.00 423.27,304.00 450.91,304.00 478.55,304.00 506.18,304.00 533.82,304.00 561.45,304.00 589.09,304.00 616.73,304.00 644.36,304.00 672.00,304.00 699.64,304.00 727.27,304.00 754.91,304.00 782.55,304.00 810.18,304.00 837.82,304.00 865.45,304.00 893.09,304.00 920.73,304.00 948.36,304.00 976.00,304.00"/>
  <circle class="dot" cx="976.00" cy="304.00" r="4.5"/>
  
  <text class="axis" x="64.00" y="336" text-anchor="start">2026-02-21</text>
  <text class="axis" x="229.82" y="336" text-anchor="middle">2026-02-27</text>
  <text class="axis" x="395.64" y="336" text-anchor="middle">2026-03-05</text>
  <text class="axis" x="561.45" y="336" text-anchor="middle">2026-03-11</text>
  <text class="axis" x="727.27" y="336" text-anchor="middle">2026-03-17</text>
  <text class="axis" x="893.09" y="336" text-anchor="middle">2026-03-23</text>
  <text class="axis" x="976.00" y="336" text-anchor="end">2026-03-26</text>
  <text class="latest" x="976" y="34" text-anchor="end">Latest week: 0</text>
</svg>
